<svg width="526" height="167" viewBox="0 0 526 167" fill="none" xmlns="http://www.w3.org/2000/svg">
<path d="M27.7748 27.3182C42.8225 15.4754 59.8169 9.95859 78.7485 11.3331C98.4938 12.7668 115.063 21.099 128.329 35.8494C132.659 40.664 136.218 46.0162 139.106 51.8127C139.313 52.2273 139.512 52.6484 139.672 53.0821C139.735 53.2523 139.682 53.4653 139.682 53.8848C119.92 53.8848 100.169 53.8848 80.4177 53.8848C80.2714 54.1051 80.125 54.3253 79.9787 54.5456C80.4246 54.7842 80.9368 54.9475 81.3066 55.2726C87.7496 60.9388 90.0327 68.2464 88.0797 76.3241C86.4552 83.0434 83.742 89.5264 81.2002 95.992C73.8949 114.574 66.4214 133.091 59.039 151.643C57.3039 156.003 57.0723 156.13 52.1056 154.114C53.1722 151.38 54.2264 148.626 55.3184 145.887C63.5484 125.243 71.7643 104.594 80.0412 83.9694C81.5348 80.2477 82.8455 76.5121 82.9436 72.4625C83.183 62.5807 77.4764 55.7408 67.7032 54.223C66.2669 54 64.798 53.8951 63.344 53.8935C45.6745 53.8741 28.0049 53.8843 10.3354 53.8868C9.4123 53.887 8.48918 53.8869 7.12695 53.8869C12.0336 43.2456 18.8714 34.5805 27.7748 27.3182Z" fill="#F76218"/>
<path d="M84.9909 109.224C89.3755 98.2529 93.6874 87.4179 98.064 76.6091C99.3792 73.3609 101.874 71.4719 105.415 71.4541C118.369 71.3887 131.323 71.4221 144.277 71.4266C144.663 71.4267 145.048 71.5187 145.409 71.5648C154.462 118.302 114.329 162.267 65.9844 156.81C72.3213 140.953 78.6322 125.161 84.9909 109.224Z" fill="#0A4075"/>
<path d="M56.4328 77.633C57.001 81.4519 55.0988 84.4948 53.8303 87.65C46.4426 106.027 38.9603 124.365 31.5032 142.714C31.4062 142.953 31.2222 143.156 31.0819 143.371C11.3718 134.172 -5.48884 92.7564 1.83658 71.4846C2.26764 71.4597 2.72582 71.41 3.18399 71.4102C18.0581 71.4137 32.9323 71.4081 47.8064 71.4376C52.7442 71.4474 55.2922 73.2839 56.4328 77.633Z" fill="#0A4075"/>
<path d="M383.229 96.098C380.017 105.98 372.981 110.956 363.175 112.381C358.867 113.008 354.547 112.757 350.37 111.396C342.867 108.949 338.025 103.8 335.698 96.3539C333.117 88.097 333.042 79.7551 335.654 71.4834C338.709 61.8091 346.278 56.0035 356.41 55.4393C362.135 55.1204 367.707 55.7992 372.776 58.6931C378.975 62.2319 382.087 67.9508 383.569 74.6849C384.498 78.9066 384.774 83.1916 384.421 87.6768C372.4 87.6768 360.533 87.6768 348.694 87.6768C347.927 92.5789 350.595 97.9711 354.634 99.8266C358.917 101.794 365.809 100.837 368.306 97.1443C369.42 95.4967 371.092 94.7828 373.108 94.8068C376.163 94.843 379.22 94.8124 382.276 94.8055C383.053 94.8037 383.881 94.7396 383.229 96.098ZM348.817 75.5344C348.665 76.4712 348.514 77.4079 348.356 78.3849C355.633 78.3849 362.613 78.3849 369.59 78.3849C369.676 72.1717 366.435 67.9712 361.162 67.3184C354.729 66.5219 350.202 69.4224 348.817 75.5344Z" fill="#0C4174"/>
<path d="M264.381 103.133C262.682 98.4076 262.643 93.764 263.878 89.1017C264.969 84.9825 267.976 82.6089 271.595 80.7794C276.066 78.5188 280.969 78.0873 285.782 77.2085C288.369 76.7363 290.955 76.1043 293.428 75.2254C295.137 74.6181 296.127 73.1756 295.983 71.1591C295.838 69.133 294.637 68.0359 292.852 67.5068C289.435 66.4947 285.954 65.997 282.486 67.1521C281.332 67.5364 279.952 68.1222 279.34 69.0527C278.34 70.5711 277.11 70.6334 275.619 70.6171C272.043 70.5779 268.466 70.6044 264.669 70.6044C264.832 67.6003 265.958 65.1371 267.634 62.9111C270.668 58.8804 274.889 56.6548 279.731 55.9093C286.48 54.8703 293.237 55.042 299.766 57.4019C305.877 59.6106 309.446 63.9403 309.597 70.4861C309.768 77.912 309.827 85.3659 309.382 92.7745C308.747 103.365 302.606 109.94 292.093 111.772C286.532 112.74 280.901 113.358 275.331 111.763C270.585 110.403 266.509 108.102 264.381 103.133ZM276.972 91.8731C276.787 92.508 276.563 93.1344 276.423 93.779C275.781 96.732 277.234 99.8263 279.776 100.972C285.615 103.603 293.871 100.068 295.499 93.8897C296.318 90.7828 296.206 87.4305 296.513 84.2024C291.502 85.485 286.938 86.5616 282.434 87.8451C280.286 88.4574 278.092 89.2393 276.972 91.8731Z" fill="#0C4174"/>
<path d="M421.441 103.971C416.728 97.2842 415.61 89.756 416.049 82.0461C416.293 77.7429 417.12 73.3029 418.627 69.2773C421.583 61.3783 427.663 56.8976 436.052 55.7066C441.242 54.9698 446.391 55.1074 451.361 56.9806C458.125 59.5305 462.332 64.5971 464.512 71.2685C467.652 80.8804 467.495 90.4735 463.212 99.7759C460.514 105.635 456.022 109.49 449.769 111.303C441.404 113.727 433.48 112.81 426.105 108.174C424.396 107.1 423.041 105.465 421.441 103.971ZM438.546 100.716C444.939 102.483 449.93 97.9675 451.43 92.4841C452.958 86.8982 453.083 81.2245 451.58 75.5971C450.296 70.7922 446.098 67.3694 441.604 67.2931C436.245 67.2023 432.589 69.8115 430.942 75.073C428.93 81.5002 429.517 87.9015 431.492 94.2148C432.535 97.5487 434.82 99.7109 438.546 100.716Z" fill="#0C4174"/>
<path d="M508.971 58.6681C516.095 61.9346 518.362 68.1003 518.952 75.0545C519.406 80.3948 519.37 85.7817 519.428 91.1492C519.5 97.8497 519.445 104.552 519.445 111.7C516.201 111.558 513.007 111.74 509.941 111.196C506.641 110.61 505.043 108.129 505.035 104.646C505.013 95.4175 505.021 86.1891 505.03 76.9607C505.034 73.3226 504.238 70.055 500.716 68.2039C496.988 66.2443 493.214 66.1846 489.517 68.3355C486.544 70.0646 485.585 72.895 485.573 76.1002C485.534 87.1211 485.558 98.1421 485.558 109.163C485.558 109.883 485.558 110.602 485.558 111.468C480.751 111.468 476.088 111.468 471.297 111.468C471.263 110.89 471.207 110.377 471.207 109.864C471.208 99.3074 471.201 88.7512 471.228 78.195C471.239 74.182 471.88 70.2806 473.488 66.5661C475.588 61.7147 479.784 59.379 484.361 57.5605C492.659 54.2637 500.826 54.831 508.971 58.6681Z" fill="#0C4074"/>
<path d="M168.306 45.0466C168.379 44.8353 168.453 44.6241 168.748 44.3096C169.199 43.77 169.429 43.3336 169.66 42.8971C169.66 42.8971 169.697 42.874 169.814 42.8696C169.97 42.7459 170.01 42.6267 170.05 42.5075C170.05 42.5075 170.088 42.4746 170.21 42.4718C170.387 42.3516 170.441 42.2341 170.495 42.1167C170.495 42.1167 170.526 42.1126 170.683 42.1238C172.36 41.7623 173.876 41.0733 175.396 41.0655C190.937 40.985 206.478 41.037 222.019 40.9844C223.769 40.9785 224.21 41.6964 224.094 43.2582C223.919 45.6301 223.729 48.0107 223.76 50.3849C223.78 51.9096 223.248 52.2986 221.796 52.2797C216.285 52.2079 210.772 52.2243 205.26 52.2894C204.662 52.2965 204.07 52.8339 203.475 53.1253C203.475 53.1253 203.419 53.0897 203.298 53.1554C203.102 54.0017 202.962 54.7822 202.961 55.5629C202.949 73.1628 202.953 90.7628 202.948 108.363C202.947 109.13 202.884 109.896 202.855 110.539C201.377 110.789 200.166 110.994 198.769 111.202C195.791 111.2 192.998 111.194 190.108 111.067C189.806 110.161 189.426 109.377 189.424 108.592C189.39 90.8354 189.402 73.0791 189.385 55.3227C189.385 54.5509 189.202 53.7793 189.033 52.8589C188.288 52.5572 187.613 52.2757 186.937 52.2713C181.425 52.235 175.912 52.205 170.401 52.2781C168.752 52.2999 168.103 51.7359 168.215 50.0828C168.329 48.4098 168.282 46.7258 168.306 45.0466Z" fill="#0B4175"/>
<path d="M329.568 109.607C329.554 113.856 329.658 117.91 329.5 121.953C329.212 129.326 326.151 132.79 318.828 133.994C315.775 134.496 312.66 134.628 309.359 134.949C309.359 130.722 309.359 126.856 309.359 122.717C310.213 122.717 311.112 122.711 312.012 122.718C313.86 122.733 314.818 121.691 315.109 119.991C315.253 119.149 315.221 118.272 315.221 117.411C315.227 98.0265 315.225 78.6422 315.226 59.258C315.226 58.4688 315.226 57.6796 315.226 56.78C318.309 56.78 321.29 56.4996 324.192 56.8587C327.106 57.2192 329.146 59.8468 329.48 62.8122C329.569 63.6002 329.566 64.4011 329.566 65.1962C329.57 79.9334 329.569 94.6707 329.568 109.607Z" fill="#0D4175"/>
<path d="M405.921 56.704C408.49 56.7115 410.865 56.7115 413.195 56.7115C414.241 61.6978 412.607 66.5766 405.165 66.6291C405.127 67.1835 405.055 67.753 405.055 68.3226C405.049 77.7499 405.043 87.1772 405.059 96.6045C405.064 99.7945 406.13 100.833 409.38 100.892C410.632 100.915 411.886 100.896 413.309 100.896C413.309 104.445 413.309 107.857 413.309 111.349C413.225 111.397 413.057 111.576 412.892 111.572C407.923 111.464 402.934 111.57 397.992 111.144C393.757 110.778 391.284 107.784 391.059 103.513C390.941 101.261 390.966 99.0005 390.965 96.7438C390.959 78.4203 390.961 60.0969 390.964 41.7734C390.964 41.3871 391.013 41.0007 391.042 40.5852C393.95 40.5852 396.797 40.3775 399.599 40.6427C402.504 40.9175 404.875 43.8386 404.995 46.922C405.101 49.6401 405.003 52.3658 405.081 55.0857C405.096 55.6284 405.502 56.1598 405.921 56.704Z" fill="#0B4074"/>
<path d="M229.566 88.8804C229.531 83.6368 229.409 78.5779 230.998 73.696C233.833 64.9855 239.897 59.7257 248.713 57.7512C252.485 56.9064 256.398 56.6936 260.414 56.1719C260.414 61.4123 260.414 66.1009 260.414 70.9454C258.04 71.0704 255.743 71.1351 253.456 71.3227C247.627 71.8008 244.158 75.1914 244.029 81.1024C243.825 90.457 243.93 99.8183 243.905 109.177C243.904 109.893 243.905 110.609 243.905 111.466C239.11 111.466 234.501 111.466 229.566 111.466C229.566 104.011 229.566 96.5452 229.566 88.8804Z" fill="#0C4174"/>
<path d="M329.58 50.0555C329.112 50.6986 328.656 51.5554 328.177 51.5688C324.334 51.6757 320.487 51.6105 316.642 51.6275C315.55 51.6323 315.121 51.1863 315.143 50.0733C315.199 47.29 315.196 44.5046 315.156 41.7209C315.14 40.6654 315.596 40.3234 316.588 40.3468C318.377 40.389 320.168 40.3405 321.958 40.3734C326.827 40.4628 329.547 43.223 329.588 48.0885C329.593 48.6851 329.584 49.2818 329.58 50.0555Z" fill="#F2641E"/>
<path d="M393.721 133.927C395.517 137.548 401.751 137.818 404.055 135.199C404.605 134.574 404.758 133.6 405.093 132.786C404.384 132.59 403.668 132.419 402.969 132.192C401.952 131.861 400.014 133.079 400.099 130.933C400.175 128.997 401.969 130.086 402.962 129.947C404.381 129.747 405.849 129.896 407.434 129.896C407.434 133.034 407.434 135.988 407.434 139.053C406.125 139.502 405.085 139.558 405.019 137.436C402.142 139.799 399.107 140.384 395.799 139.186C393.652 138.408 391.984 137.039 390.976 134.98C388.72 130.37 390.407 124.728 394.653 122.54C399.152 120.221 404.618 121.675 407.057 126.31C405.76 126.2 404.526 126.467 403.833 125.974C400.711 123.754 397.592 123.456 395.066 125.429C392.819 127.185 392.25 130.533 393.721 133.927Z" fill="#E66E32"/>
<path d="M482.41 132.728C482.413 134.387 482.428 135.848 482.411 137.309C482.399 138.259 482.713 139.354 481.079 139.391C479.479 139.427 479.653 138.418 479.654 137.408C479.657 132.892 479.616 128.375 479.684 123.86C479.694 123.136 480.174 122.418 480.436 121.697C481.335 122.09 482.534 122.241 483.08 122.919C485.455 125.861 487.636 128.958 489.895 131.994C490.364 132.623 490.865 133.229 491.757 134.362C491.831 133.152 491.903 132.495 491.906 131.838C491.922 129.116 492.014 126.388 491.888 123.671C491.793 121.611 492.678 121.255 494.666 121.892C494.666 124.118 494.664 126.421 494.667 128.724C494.67 131.447 494.733 134.171 494.652 136.892C494.627 137.71 494.435 138.985 493.924 139.233C492.86 139.748 491.852 139.186 491.09 138.095C488.924 134.994 486.649 131.969 484.408 128.921C483.946 128.292 483.446 127.69 482.964 127.076C482.779 127.102 482.594 127.127 482.409 127.152C482.409 128.945 482.409 130.737 482.41 132.728Z" fill="#E76F34"/>
<path d="M350.795 125.872C351.463 124.712 351.928 123.555 352.719 122.699C353.246 122.129 354.223 121.821 355.029 121.754C355.271 121.734 355.862 122.919 355.869 123.557C355.916 128.131 355.783 132.708 355.86 137.282C355.892 139.185 355.146 139.622 353.261 139.092C353.261 135.21 353.261 131.287 353.261 127.364C353.078 127.297 352.894 127.231 352.711 127.164C351.545 129.167 350.422 131.196 349.191 133.157C348.766 133.834 348.071 134.34 347.5 134.925C346.934 134.339 346.251 133.828 345.825 133.155C344.576 131.181 343.429 129.143 342.243 127.13C342.086 127.19 341.93 127.249 341.774 127.309C341.774 131.169 341.774 135.029 341.774 138.825C339.354 139.685 339.067 139.499 339.065 137.209C339.061 132.633 339.036 128.057 339.097 123.483C339.105 122.876 339.644 121.738 339.795 121.761C340.613 121.888 341.713 122.077 342.118 122.659C343.627 124.831 344.898 127.167 346.27 129.434C346.6 129.98 346.971 130.5 347.52 131.33C348.704 129.366 349.717 127.685 350.795 125.872ZM340.879 133.317C340.879 130.92 340.879 128.522 340.879 125.905C342 126.236 342.559 126.401 343.117 126.566C343.219 126.447 343.322 126.327 343.424 126.208C342.636 125.035 341.848 123.863 340.968 122.553C339.949 124.09 339.734 137.61 340.879 138.988C340.879 136.915 340.879 135.314 340.879 133.317Z" fill="#E36E34"/>
<path d="M508.31 135.766C508.925 136.206 509.514 136.651 510.124 136.68C512.109 136.775 514.102 136.743 516.091 136.709C517.049 136.692 517.783 136.733 517.754 138.027C517.728 139.163 517.113 139.315 516.211 139.311C512.713 139.296 509.215 139.305 505.609 139.305C505.609 133.348 505.609 127.667 505.609 121.623C508.244 121.623 510.866 121.622 513.487 121.624C514.482 121.624 515.502 121.503 516.46 121.693C516.88 121.776 517.449 122.503 517.445 122.932C517.44 123.366 516.833 124.136 516.448 124.163C514.667 124.289 512.871 124.208 511.08 124.199C508.251 124.185 508.247 124.185 508.288 127.002C508.295 127.516 508.355 128.03 508.407 128.79C510.403 128.79 512.306 128.81 514.208 128.781C515.104 128.767 515.977 128.898 515.658 130.01C515.506 130.538 514.74 131.161 514.179 131.243C512.946 131.425 511.66 131.373 510.408 131.265C508.774 131.124 508.054 131.707 508.272 133.393C508.365 134.111 508.291 134.85 508.31 135.766Z" fill="#E76D31"/>
<path d="M422.593 123.141C423.723 121.277 425.455 120.987 426.133 122.529C428.5 127.914 430.735 133.358 433.073 138.903C431.326 139.563 430.101 139.532 429.644 137.556C429.219 135.716 428.099 134.943 426.193 135.236C425.416 135.356 424.594 135.343 423.811 135.243C421.427 134.94 419.726 135.479 419.111 138.166C418.734 139.81 417.352 139.338 415.893 139.055C418.146 133.711 420.344 128.498 422.593 123.141ZM426.068 128.66C425.581 127.545 425.093 126.431 424.449 124.959C423.316 127.803 422.35 130.227 421.307 132.845C423.536 132.845 425.46 132.845 427.66 132.845C427.106 131.38 426.645 130.16 426.068 128.66Z" fill="#E76D30"/>
<path d="M378.092 129.351C379.464 132.593 380.77 135.698 382.12 138.908C380.447 139.633 379.221 139.467 378.76 137.711C378.219 135.652 376.975 134.945 374.951 135.237C374.236 135.34 373.482 135.335 372.765 135.238C370.45 134.927 368.816 135.486 368.237 138.067C367.873 139.686 366.537 139.388 364.984 139.045C366.011 136.543 366.985 134.122 367.996 131.715C369.151 128.964 370.268 126.192 371.557 123.503C371.92 122.746 372.732 121.944 373.507 121.7C374.867 121.273 375.23 122.547 375.641 123.525C376.438 125.42 377.231 127.317 378.092 129.351ZM370.673 131.943C370.78 132.274 370.877 132.889 370.994 132.893C372.852 132.953 374.713 132.935 376.839 132.935C375.693 130.112 374.721 127.717 373.577 124.897C372.518 127.451 371.646 129.556 370.673 131.943Z" fill="#E76D30"/>
<path d="M203.647 53.072C204.07 52.8346 204.662 52.2972 205.26 52.2902C210.772 52.225 216.285 52.2086 221.796 52.2804C223.248 52.2993 223.78 51.9103 223.76 50.3856C223.729 48.0114 223.919 45.6308 224.094 43.2589C224.21 41.6971 223.769 40.9792 222.019 40.9851C206.478 41.0377 190.937 40.9857 175.396 41.0662C173.876 41.074 172.359 41.763 170.686 42.1095C172.094 41.5014 173.653 40.4265 175.222 40.4141C191.294 40.2868 207.368 40.3313 223.441 40.3335C223.697 40.3336 223.952 40.4044 224.35 40.4633C224.35 44.5663 224.35 48.6298 224.35 53.0179C217.455 53.0179 210.637 53.0179 203.647 53.072Z" fill="#3E5F83"/>
<path d="M449.236 128.246C449.748 127.686 450.261 127.127 450.956 126.432C451.742 125.669 452.345 125.041 452.947 124.413C452.887 124.188 452.826 123.962 452.765 123.737C449.364 123.629 445.963 123.521 442.562 123.413C442.56 123.144 442.557 122.876 442.555 122.608C443.137 122.52 443.718 122.36 444.301 122.355C447.28 122.329 450.261 122.312 453.24 122.365C453.898 122.377 454.551 122.69 455.206 122.864C454.968 123.57 454.719 124.272 454.494 124.983C454.382 125.339 454.314 125.709 454.226 126.072C454.226 126.072 454.101 126.042 454.036 126.063C453.871 126.3 453.771 126.516 453.671 126.732C453.671 126.732 453.683 126.745 453.538 126.748C451.746 128.52 450.045 130.243 448.474 132.078C447.696 132.986 447.157 134.099 446.509 135.119C446.509 135.119 446.507 135.115 446.37 135.122C445.846 135.595 445.46 136.062 445.074 136.529C445.678 136.847 446.271 137.41 446.89 137.44C449.137 137.552 451.394 137.461 453.647 137.503C454.185 137.513 454.72 137.742 455.256 137.87C455.227 138.07 455.199 138.27 455.17 138.47C450.891 138.47 446.612 138.47 442 138.47C442.284 137.669 442.51 136.963 442.786 136.277C443.017 135.703 443.307 135.153 443.571 134.592C443.571 134.592 443.665 134.614 443.747 134.596C443.926 134.361 444.024 134.144 444.121 133.927C444.121 133.927 444.116 133.919 444.258 133.913C445.104 132.982 445.806 132.057 446.509 131.133C446.509 131.133 446.507 131.129 446.647 131.124C447.604 130.161 448.42 129.203 449.236 128.246Z" fill="#F0621C"/>
<path d="M443.447 134.639C443.307 135.152 443.017 135.702 442.786 136.277C442.51 136.963 442.284 137.669 442 138.469C446.612 138.469 450.891 138.469 455.17 138.469C455.199 138.269 455.227 138.069 455.256 137.869C454.72 137.741 454.185 137.513 453.647 137.503C451.395 137.461 449.138 137.551 446.89 137.44C446.271 137.409 445.679 136.847 445.074 136.528C445.46 136.062 445.847 135.595 446.372 135.122C446.34 135.527 446.169 135.938 445.855 136.69C448.679 136.69 451.29 136.664 453.9 136.704C454.856 136.719 456.137 136.25 456.1 138.072C456.065 139.73 454.914 139.353 453.999 139.359C450.491 139.382 446.984 139.373 443.476 139.357C441.466 139.349 440.752 138.034 441.851 136.288C442.231 135.684 442.826 135.216 443.447 134.639Z" fill="#E07D4D"/>
<path d="M454.352 126.02C454.315 125.709 454.383 125.339 454.495 124.983C454.72 124.272 454.969 123.57 455.207 122.864C454.552 122.69 453.899 122.377 453.241 122.365C450.262 122.312 447.282 122.329 444.302 122.355C443.719 122.36 443.138 122.52 442.556 122.608C442.559 122.876 442.561 123.145 442.563 123.413C445.964 123.521 449.365 123.629 452.766 123.737C452.827 123.962 452.888 124.188 452.948 124.413C452.346 125.041 451.743 125.669 451 126.312C451.115 125.753 451.37 125.179 451.772 124.274C448.962 124.274 446.356 124.29 443.75 124.266C442.812 124.257 441.684 124.565 441.684 122.926C441.683 121.282 442.813 121.604 443.749 121.598C447.124 121.579 450.499 121.558 453.872 121.616C454.582 121.628 455.871 121.928 455.89 122.173C455.96 123.082 455.679 124.045 455.388 124.941C455.259 125.34 454.791 125.629 454.352 126.02Z" fill="#E07D4D"/>
<path d="M198.955 111.2C200.166 110.995 201.377 110.79 202.855 110.539C202.884 109.897 202.947 109.13 202.948 108.363C202.953 90.7633 202.949 73.1633 202.962 55.5634C202.962 54.7827 203.102 54.0022 203.324 53.1348C203.47 72.3141 203.471 91.5803 203.232 111.027C201.647 111.205 200.301 111.203 198.955 111.2Z" fill="#1C4166"/>
<path d="M468.608 139.122C466.735 139.656 465.961 139.19 466.019 137.184C466.149 132.688 466.047 128.185 466.046 123.685C466.046 121.423 466.173 121.336 468.738 121.843C468.738 127.552 468.738 133.283 468.608 139.122ZM468.429 132.124C468.156 128.887 469.073 125.523 467.56 122.04C467.166 122.575 466.898 122.769 466.896 122.966C466.856 127.919 466.829 132.873 466.864 137.826C466.866 138.105 467.408 138.38 467.699 138.657C467.94 138.329 468.377 138.01 468.391 137.673C468.464 135.958 468.427 134.239 468.429 132.124Z" fill="#D68052"/>
<path d="M189.102 53.0078C189.2 53.7795 189.384 54.5512 189.384 55.323C189.401 73.0794 189.389 90.8357 189.423 108.592C189.425 109.377 189.805 110.162 189.958 111.074C189.611 111.201 189.315 111.199 189.018 111.198C188.979 110.074 188.907 108.95 188.907 107.826C188.904 89.8263 188.911 71.8269 188.983 53.534C189.068 53.163 189.085 53.0854 189.102 53.0078Z" fill="#1C4166"/>
<path d="M189.031 52.859C189.084 53.0852 189.067 53.1628 189.008 53.3519C188.24 53.2791 187.515 52.9405 186.788 52.9351C181.233 52.8939 175.676 52.9177 170.12 52.9212C169.407 52.9216 168.693 52.9212 167.555 52.9212C167.759 50.2293 167.946 47.7632 168.219 45.1719C168.281 46.7259 168.328 48.4099 168.214 50.0829C168.101 51.736 168.751 52.3 170.399 52.2781C175.91 52.2051 181.423 52.2351 186.935 52.2713C187.611 52.2758 188.286 52.5573 189.031 52.859Z" fill="#3E5F83"/>
<path d="M189.066 111.345C189.315 111.199 189.612 111.201 190.057 111.195C192.998 111.194 195.79 111.2 198.769 111.203C200.3 111.202 201.646 111.205 203.175 111.207C203.17 111.347 202.982 111.611 202.795 111.61C198.234 111.588 193.674 111.537 189.066 111.345Z" fill="#3E5F83"/>
<path d="M446.635 135.072C447.157 134.098 447.697 132.986 448.475 132.077C450.046 130.243 451.746 128.519 453.532 126.742C451.366 129.498 449.063 132.261 446.635 135.072Z" fill="#E07D4D"/>
<path d="M449.106 128.277C448.421 129.204 447.605 130.161 446.65 131.125C447.333 130.19 448.153 129.249 449.106 128.277Z" fill="#E07D4D"/>
<path d="M446.386 131.182C445.806 132.057 445.103 132.981 444.262 133.915C444.836 133.026 445.549 132.129 446.386 131.182Z" fill="#E07D4D"/>
<path d="M169.552 42.9551C169.429 43.3332 169.199 43.7697 168.828 44.2281C168.94 43.8378 169.192 43.4256 169.552 42.9551Z" fill="#3E5F83"/>
<path d="M453.784 126.698C453.771 126.516 453.871 126.299 454.098 126.074C454.116 126.265 454.007 126.465 453.784 126.698Z" fill="#E07D4D"/>
<path d="M444.012 133.967C444.024 134.144 443.926 134.362 443.701 134.588C443.683 134.401 443.793 134.204 444.012 133.967Z" fill="#E07D4D"/>
<path d="M169.969 42.5312C170.009 42.6258 169.97 42.745 169.825 42.8499C169.73 42.7145 169.786 42.6213 169.969 42.5312Z" fill="#3E5F83"/>
<path d="M170.407 42.1328C170.441 42.2334 170.387 42.3509 170.227 42.4518C170.137 42.3054 170.203 42.2102 170.407 42.1328Z" fill="#3E5F83"/>
<path d="M340.879 133.513C340.879 135.312 340.879 136.913 340.879 138.986C339.733 137.608 339.949 124.088 340.967 122.551C341.848 123.861 342.636 125.033 343.424 126.206C343.321 126.325 343.219 126.445 343.117 126.564C342.558 126.399 341.999 126.234 340.879 125.903C340.879 128.52 340.879 130.918 340.879 133.513Z" fill="#F4621A"/>
<path d="M426.126 128.8C426.645 130.16 427.106 131.38 427.66 132.845C425.46 132.845 423.535 132.845 421.307 132.845C422.35 130.227 423.316 127.803 424.449 124.959C425.093 126.431 425.581 127.545 426.126 128.8Z" fill="#FEEDDE"/>
<path d="M370.725 131.804C371.647 129.557 372.52 127.452 373.578 124.898C374.723 127.719 375.695 130.114 376.84 132.937C374.715 132.937 372.854 132.955 370.995 132.894C370.878 132.89 370.781 132.276 370.725 131.804Z" fill="#FEEDDE"/>
<path d="M468.429 132.324C468.427 134.24 468.463 135.959 468.391 137.674C468.376 138.011 467.94 138.33 467.699 138.658C467.408 138.381 466.865 138.106 466.863 137.827C466.829 132.874 466.856 127.92 466.896 122.967C466.898 122.77 467.166 122.576 467.56 122.041C469.073 125.524 468.156 128.888 468.429 132.324Z" fill="#ED6420"/>
</svg>
