<?xml version="1.0" encoding="UTF-8"?>
<!DOCTYPE svg PUBLIC "-//W3C//DTD SVG 1.1//EN" "http://www.w3.org/Graphics/SVG/1.1/DTD/svg11.dtd">
<svg xmlns="http://www.w3.org/2000/svg" version="1.1" width="391px" height="167px" style="shape-rendering:geometricPrecision; text-rendering:geometricPrecision; image-rendering:optimizeQuality; fill-rule:evenodd; clip-rule:evenodd" xmlns:xlink="http://www.w3.org/1999/xlink">
<g><path style="opacity:0.882" fill="#cf7242" d="M 118.5,68.5 C 118.389,67.8826 118.056,67.3826 117.5,67C 121.463,63.7048 121.463,60.5381 117.5,57.5C 104.577,44.396 88.9106,39.896 70.5,44C 68.6769,44.9973 67.0103,46.1639 65.5,47.5C 63.7446,48.0722 62.0779,48.9055 60.5,50C 56.1862,53.8 52.5196,57.9666 49.5,62.5C 49.9837,64.8008 50.9837,66.8008 52.5,68.5C 45.2192,68.5077 43.7192,65.5077 48,59.5C 61.1702,42.2209 78.3369,36.0543 99.5,41C 111.367,45.5336 120.034,53.5336 125.5,65C 124.046,67.7276 121.712,68.8942 118.5,68.5 Z"/></g>
<g><path style="opacity:1" fill="#f66016" d="M 117.5,57.5 C 118.933,59.5582 119.6,61.8915 119.5,64.5C 109.148,64.2956 98.8144,64.6289 88.5,65.5C 76.8455,64.7782 65.1788,64.2782 53.5,64C 51.842,63.2747 51.342,62.108 52,60.5C 56.4726,55.8554 60.9726,51.5221 65.5,47.5C 67.0103,46.1639 68.6769,44.9973 70.5,44C 88.9106,39.896 104.577,44.396 117.5,57.5 Z"/></g>
<g><path style="opacity:0.388" fill="#bd764a" d="M 233.5,59.5 C 232.978,61.2191 231.978,62.5525 230.5,63.5C 229.848,64.7251 228.681,65.3917 227,65.5C 224.558,65.5177 222.392,64.851 220.5,63.5C 220.665,61.1732 221.331,59.0065 222.5,57C 225.5,56.3333 228.5,56.3333 231.5,57C 232.381,57.7083 233.047,58.5416 233.5,59.5 Z"/></g>
<g><path style="opacity:1" fill="#de6526" d="M 230.5,63.5 C 228.801,63.6602 227.134,63.4935 225.5,63C 224.167,61.6667 224.167,60.3333 225.5,59C 227.134,58.5065 228.801,58.3398 230.5,58.5C 230.5,60.1667 230.5,61.8333 230.5,63.5 Z"/></g>
<g><path style="opacity:1" fill="#12375c" d="M 167.5,56.5 C 168.93,56.4208 170.264,56.7542 171.5,57.5C 172.484,60.4281 172.817,63.4281 172.5,66.5C 168.5,66.5 164.5,66.5 160.5,66.5C 160.5,77.8333 160.5,89.1667 160.5,100.5C 157.167,100.5 153.833,100.5 150.5,100.5C 150.5,89.1667 150.5,77.8333 150.5,66.5C 146.5,66.5 142.5,66.5 138.5,66.5C 138.02,63.3148 138.686,60.4815 140.5,58C 149.676,57.8297 158.676,57.3297 167.5,56.5 Z"/></g>
<g><path style="opacity:1" fill="#0a3c6f" d="M 147.5,58.5 C 154.833,59.1667 162.167,59.8333 169.5,60.5C 169.5,61.5 169.5,62.5 169.5,63.5C 166.167,63.5 162.833,63.5 159.5,63.5C 158.732,74.8009 158.232,86.1342 158,97.5C 156.333,98.8333 154.667,98.8333 153,97.5C 152.744,86.1415 152.244,74.8082 151.5,63.5C 148.5,63.5 145.5,63.5 142.5,63.5C 142.351,62.448 142.517,61.448 143,60.5C 144.622,59.9011 146.122,59.2344 147.5,58.5 Z"/></g>
<g><path style="opacity:0.966" fill="#d55f25" d="M 65.5,47.5 C 60.9726,51.5221 56.4726,55.8554 52,60.5C 51.342,62.108 51.842,63.2747 53.5,64C 65.1788,64.2782 76.8455,64.7782 88.5,65.5C 98.8144,64.6289 109.148,64.2956 119.5,64.5C 119.6,61.8915 118.933,59.5582 117.5,57.5C 121.463,60.5381 121.463,63.7048 117.5,67C 118.056,67.3826 118.389,67.8826 118.5,68.5C 112.155,68.3473 105.822,68.014 99.5,67.5C 91.8416,66.5847 84.0082,65.918 76,65.5C 69.8819,65.6321 64.0486,66.6321 58.5,68.5C 56.5,68.5 54.5,68.5 52.5,68.5C 50.9837,66.8008 49.9837,64.8008 49.5,62.5C 52.5196,57.9666 56.1862,53.8 60.5,50C 62.0779,48.9055 63.7446,48.0722 65.5,47.5 Z"/></g>
<g><path style="opacity:0.055" fill="#806048" d="M 233.5,59.5 C 233.5,61.8333 233.5,64.1667 233.5,66.5C 232.5,66.5 231.5,66.5 230.5,66.5C 227.833,66.5 225.167,66.5 222.5,66.5C 221.599,65.7095 220.932,64.7095 220.5,63.5C 222.392,64.851 224.558,65.5177 227,65.5C 228.681,65.3917 229.848,64.7251 230.5,63.5C 231.978,62.5525 232.978,61.2191 233.5,59.5 Z"/></g>
<g><path style="opacity:0.867" fill="#cc6c37" d="M 99.5,67.5 C 97.5853,67.2155 95.9187,67.5489 94.5,68.5C 94.7934,74.8119 94.1267,81.1453 92.5,87.5C 89.9505,87.5608 88.4505,88.8941 88,91.5C 84.1335,101.221 80.3002,110.888 76.5,120.5C 75.635,121.583 74.635,121.749 73.5,121C 74.4061,119.301 74.7394,117.467 74.5,115.5C 78.5121,103.628 83.0121,91.9614 88,80.5C 89.239,74.0754 86.739,69.9087 80.5,68C 73.0323,68.0974 65.6989,68.2641 58.5,68.5C 64.0486,66.6321 69.8819,65.6321 76,65.5C 84.0082,65.918 91.8416,66.5847 99.5,67.5 Z"/></g>
<g><path style="opacity:1" fill="#0a396b" d="M 276.5,74.5 C 276.5,79.8333 276.5,85.1667 276.5,90.5C 275.54,84.0435 274.54,84.0435 273.5,90.5C 273.257,92.9215 274.257,94.5882 276.5,95.5C 273.966,96.7766 271.466,96.7766 269,95.5C 267.279,83.8682 267.113,72.2016 268.5,60.5C 270.861,59.2242 273.028,59.5575 275,61.5C 275.261,64.6632 276.094,67.6632 277.5,70.5C 277.154,71.8492 276.821,73.1825 276.5,74.5 Z"/></g>
<g><path style="opacity:0.945" fill="#0f3258" d="M 67.5,105.5 C 66.3775,103.712 66.2109,101.712 67,99.5C 68.7924,93.5696 70.959,87.7363 73.5,82C 73.3552,80.7741 73.0219,79.6074 72.5,78.5C 63.5246,77.5018 54.5246,77.1685 45.5,77.5C 45.6686,82.1811 46.0019,86.8478 46.5,91.5C 51.5743,91.3605 52.5743,93.1939 49.5,97C 52.167,102.334 54.8336,107.667 57.5,113C 58.4162,113.374 59.2496,113.874 60,114.5C 61.3267,111.869 62.6601,109.202 64,106.5C 64.7697,105.402 65.603,105.402 66.5,106.5C 65.4517,110.926 63.6184,114.926 61,118.5C 46.3154,107.794 40.4821,93.4608 43.5,75.5C 53.4834,74.3344 63.4834,74.1678 73.5,75C 74.3081,75.3076 74.9747,75.8076 75.5,76.5C 76.5617,79.1029 76.7284,81.7695 76,84.5C 73.1539,91.5213 70.3205,98.5213 67.5,105.5 Z"/></g>
<g><path style="opacity:1" fill="#083e73" d="M 67.5,105.5 C 67.5,106.167 67.1667,106.5 66.5,106.5C 65.603,105.402 64.7697,105.402 64,106.5C 62.6601,109.202 61.3267,111.869 60,114.5C 59.2496,113.874 58.4162,113.374 57.5,113C 54.8336,107.667 52.167,102.334 49.5,97C 52.5743,93.1939 51.5743,91.3605 46.5,91.5C 46.0019,86.8478 45.6686,82.1811 45.5,77.5C 54.5246,77.1685 63.5246,77.5018 72.5,78.5C 73.0219,79.6074 73.3552,80.7741 73.5,82C 70.959,87.7363 68.7924,93.5696 67,99.5C 66.2109,101.712 66.3775,103.712 67.5,105.5 Z"/></g>
<g><path style="opacity:1" fill="#0f3760" d="M 212.5,99.5 C 212.967,96.7026 214.633,95.3692 217.5,95.5C 218.538,87.1944 218.705,78.8611 218,70.5C 214.146,69.7444 210.312,68.7444 206.5,67.5C 203.472,67.8473 200.806,69.014 198.5,71C 199.263,71.9435 200.263,72.4435 201.5,72.5C 206.234,70.5254 210.234,71.3587 213.5,75C 212.956,75.7172 212.289,76.2172 211.5,76.5C 210.688,75.0069 209.355,74.3402 207.5,74.5C 200.273,76.012 192.939,77.3453 185.5,78.5C 184.719,79.7287 184.219,81.062 184,82.5C 183.501,88.4908 183.334,94.4908 183.5,100.5C 180.167,100.5 176.833,100.5 173.5,100.5C 173.09,91.7502 173.59,83.0836 175,74.5C 179.513,68.2653 185.68,65.5986 193.5,66.5C 193.338,68.5273 193.505,70.5273 194,72.5C 197.001,67.4339 201.501,65.1006 207.5,65.5C 212.444,65.3128 216.611,66.9795 220,70.5C 221.591,77.392 221.924,84.392 221,91.5C 219.613,95.7211 216.779,98.3878 212.5,99.5 Z M 202.5,90.5 C 202.5,90.1667 202.5,89.8333 202.5,89.5C 204.712,86.6423 207.712,85.309 211.5,85.5C 210.67,91.5342 207.67,93.2009 202.5,90.5 Z"/></g>
<g><path style="opacity:1" fill="#0b3c6d" d="M 212.5,99.5 C 207.858,98.7776 203.191,97.9443 198.5,97C 195.379,93.3556 194.712,89.1889 196.5,84.5C 200.011,80.4785 204.344,79.6452 209.5,82C 205.43,82.524 202.764,84.6907 201.5,88.5C 201.624,89.1067 201.957,89.44 202.5,89.5C 202.5,89.8333 202.5,90.1667 202.5,90.5C 202.284,92.6807 203.117,94.3474 205,95.5C 208.526,94.3561 211.526,92.3561 214,89.5C 214.494,87.8659 214.66,86.1992 214.5,84.5C 213.5,84.5 212.5,84.5 211.5,84.5C 211.5,81.8333 211.5,79.1667 211.5,76.5C 212.289,76.2172 212.956,75.7172 213.5,75C 210.234,71.3587 206.234,70.5254 201.5,72.5C 200.263,72.4435 199.263,71.9435 198.5,71C 200.806,69.014 203.472,67.8473 206.5,67.5C 210.312,68.7444 214.146,69.7444 218,70.5C 218.705,78.8611 218.538,87.1944 217.5,95.5C 214.633,95.3692 212.967,96.7026 212.5,99.5 Z M 202.5,90.5 C 202.5,90.1667 202.5,89.8333 202.5,89.5C 204.712,86.6423 207.712,85.309 211.5,85.5C 210.67,91.5342 207.67,93.2009 202.5,90.5 Z"/></g>
<g><path style="opacity:0.484" fill="#113354" d="M 211.5,76.5 C 211.5,79.1667 211.5,81.8333 211.5,84.5C 212.5,84.5 213.5,84.5 214.5,84.5C 214.66,86.1992 214.494,87.8659 214,89.5C 211.526,92.3561 208.526,94.3561 205,95.5C 203.117,94.3474 202.284,92.6807 202.5,90.5C 207.67,93.2009 210.67,91.5342 211.5,85.5C 207.712,85.309 204.712,86.6423 202.5,89.5C 201.957,89.44 201.624,89.1067 201.5,88.5C 202.764,84.6907 205.43,82.524 209.5,82C 204.344,79.6452 200.011,80.4785 196.5,84.5C 194.712,89.1889 195.379,93.3556 198.5,97C 203.191,97.9443 207.858,98.7776 212.5,99.5C 208.354,100.647 204.02,100.814 199.5,100C 193.311,97.136 191.144,92.3027 193,85.5C 193.785,83.714 194.951,82.214 196.5,81C 201.464,79.2872 206.464,77.7872 211.5,76.5 Z M 202.5,90.5 C 202.5,90.1667 202.5,89.8333 202.5,89.5C 204.712,86.6423 207.712,85.309 211.5,85.5C 210.67,91.5342 207.67,93.2009 202.5,90.5 Z"/></g>
<g><path style="opacity:1" fill="#0f3356" d="M 311.5,86.5 C 312.319,89.3054 312.819,92.3054 313,95.5C 315.041,96.4231 317.208,96.7564 319.5,96.5C 319.334,89.825 319.5,83.1583 320,76.5C 323.786,70.416 328.12,70.0827 333,75.5C 333.5,82.1583 333.666,88.825 333.5,95.5C 335.167,95.5 336.833,95.5 338.5,95.5C 338.856,87.7618 338.356,80.0952 337,72.5C 335.565,70.7887 333.731,69.622 331.5,69C 325.906,67.6184 320.906,68.6184 316.5,72C 315.33,77.2366 313.33,82.0699 310.5,86.5C 310.101,95.7321 305.268,100.399 296,100.5C 285.443,100.444 279.943,95.1102 279.5,84.5C 280.117,84.3893 280.617,84.056 281,83.5C 281.824,87.6559 283.324,91.4893 285.5,95C 291.307,97.8452 297.307,98.1786 303.5,96C 304.825,93.0152 306.158,90.0152 307.5,87C 307.241,85.7387 306.574,84.7387 305.5,84C 307.857,78.8794 307.191,74.0461 303.5,69.5C 297.807,68.2793 292.14,68.4459 286.5,70C 286.043,72.9557 284.377,74.7891 281.5,75.5C 284.685,67.4036 290.685,64.2369 299.5,66C 306.484,67.7929 310.317,72.2929 311,79.5C 311.996,69.9873 317.33,65.3207 327,65.5C 334.639,65.6266 339.306,69.2932 341,76.5C 341.814,84.4128 341.647,92.2462 340.5,100C 336.328,101.291 333.161,100.124 331,96.5C 330.667,89.8333 330.333,83.1667 330,76.5C 327.667,73.8333 325.333,73.8333 323,76.5C 322.817,84.4124 322.317,92.2457 321.5,100C 318.24,100.784 315.073,100.617 312,99.5C 311.501,95.1794 311.334,90.8461 311.5,86.5 Z"/></g>
<g><path style="opacity:1" fill="#0a3d6f" d="M 311.5,86.5 C 311.167,86.5 310.833,86.5 310.5,86.5C 313.33,82.0699 315.33,77.2366 316.5,72C 320.906,68.6184 325.906,67.6184 331.5,69C 333.731,69.622 335.565,70.7887 337,72.5C 338.356,80.0952 338.856,87.7618 338.5,95.5C 336.833,95.5 335.167,95.5 333.5,95.5C 333.666,88.825 333.5,82.1583 333,75.5C 328.12,70.0827 323.786,70.416 320,76.5C 319.5,83.1583 319.334,89.825 319.5,96.5C 317.208,96.7564 315.041,96.4231 313,95.5C 312.819,92.3054 312.319,89.3054 311.5,86.5 Z"/></g>
<g><path style="opacity:0.999" fill="#0a3865" d="M 279.5,84.5 C 279.676,81.2727 280.343,78.2727 281.5,75.5C 284.377,74.7891 286.043,72.9557 286.5,70C 292.14,68.4459 297.807,68.2793 303.5,69.5C 307.191,74.0461 307.857,78.8794 305.5,84C 306.574,84.7387 307.241,85.7387 307.5,87C 306.158,90.0152 304.825,93.0152 303.5,96C 297.307,98.1786 291.307,97.8452 285.5,95C 283.324,91.4893 281.824,87.6559 281,83.5C 280.617,84.056 280.117,84.3893 279.5,84.5 Z M 294.5,74.5 C 299.204,75.5497 301.204,78.5497 300.5,83.5C 301.25,87.7386 299.583,90.4052 295.5,91.5C 291.417,90.4052 289.75,87.7386 290.5,83.5C 289.985,79.5396 291.318,76.5396 294.5,74.5 Z"/></g>
<g><path style="opacity:1" fill="#0b3967" d="M 250.5,91.5 C 250.369,92.3764 250.702,93.0431 251.5,93.5C 253.943,91.9447 256.61,91.278 259.5,91.5C 259.703,93.3904 259.037,94.8904 257.5,96C 251.873,97.6253 246.206,97.792 240.5,96.5C 236.638,91.4615 234.304,85.7949 233.5,79.5C 235.205,68.6426 241.538,64.1426 252.5,66C 259.455,67.2887 263.289,71.4554 264,78.5C 264.497,81.146 264.664,83.8127 264.5,86.5C 257.492,86.3337 250.492,86.5004 243.5,87C 244.677,90.3494 247.01,91.8494 250.5,91.5 Z M 247.5,74.5 C 250.084,74.5688 252.084,75.7355 253.5,78C 250.446,78.8214 247.446,78.6548 244.5,77.5C 245.34,76.265 246.34,75.265 247.5,74.5 Z"/></g>
<g><path style="opacity:0.524" fill="#143355" d="M 276.5,74.5 C 276.821,73.1825 277.154,71.8492 277.5,70.5C 276.094,67.6632 275.261,64.6632 275,61.5C 273.028,59.5575 270.861,59.2242 268.5,60.5C 267.113,72.2016 267.279,83.8682 269,95.5C 271.466,96.7766 273.966,96.7766 276.5,95.5C 274.257,94.5882 273.257,92.9215 273.5,90.5C 274.54,84.0435 275.54,84.0435 276.5,90.5C 277.568,91.4345 278.901,91.7678 280.5,91.5C 280.5,94.5 280.5,97.5 280.5,100.5C 276.064,100.79 271.73,100.29 267.5,99C 266.874,98.2496 266.374,97.4162 266,96.5C 265.167,83.4872 265.334,70.4872 266.5,57.5C 274.158,55.4853 277.491,58.4853 276.5,66.5C 277.833,66.5 279.167,66.5 280.5,66.5C 280.662,68.5273 280.495,70.5273 280,72.5C 279.184,73.8228 278.017,74.4894 276.5,74.5 Z"/></g>
<g><path style="opacity:1" fill="#0f3861" d="M 222.5,66.5 C 225.167,66.5 227.833,66.5 230.5,66.5C 230.783,67.2891 231.283,67.9558 232,68.5C 232.177,72.3563 232.677,76.023 233.5,79.5C 234.304,85.7949 236.638,91.4615 240.5,96.5C 246.206,97.792 251.873,97.6253 257.5,96C 259.037,94.8904 259.703,93.3904 259.5,91.5C 256.61,91.278 253.943,91.9447 251.5,93.5C 250.702,93.0431 250.369,92.3764 250.5,91.5C 254.274,88.738 258.607,87.738 263.5,88.5C 262.128,96.8602 257.128,100.86 248.5,100.5C 239.132,100.556 233.966,95.8894 233,86.5C 232.667,94.1667 232.333,101.833 232,109.5C 228.548,113.046 224.382,114.213 219.5,113C 217.587,108.979 218.42,105.813 222,103.5C 222.5,91.1712 222.667,78.8378 222.5,66.5 Z"/></g>
<g><path style="opacity:0.859" fill="#b87149" d="M 94.5,68.5 C 95.6111,73.4158 95.7777,78.4158 95,83.5C 89.7967,95.2816 85.2967,107.282 81.5,119.5C 80.0824,121.187 78.7491,123.02 77.5,125C 75.8333,125.667 74.1667,125.667 72.5,125C 71.3948,121.477 72.0614,118.31 74.5,115.5C 74.7394,117.467 74.4061,119.301 73.5,121C 74.635,121.749 75.635,121.583 76.5,120.5C 80.3002,110.888 84.1335,101.221 88,91.5C 88.4505,88.8941 89.9505,87.5608 92.5,87.5C 94.1267,81.1453 94.7934,74.8119 94.5,68.5 Z"/></g>
<g><path style="opacity:0.827" fill="#b98360" d="M 295.5,102.5 C 298.833,102.5 302.167,102.5 305.5,102.5C 305.98,105.685 305.314,108.519 303.5,111C 305.363,112.418 305.863,114.251 305,116.5C 301.667,117.833 298.333,117.833 295,116.5C 294.056,113.653 294.556,111.153 296.5,109C 294.316,107.102 293.983,104.936 295.5,102.5 Z"/></g>
<g><path style="opacity:0.933" fill="#b48968" d="M 237.5,102.5 C 239.229,103.117 240.729,104.117 242,105.5C 243.835,102.142 246.002,101.809 248.5,104.5C 249.833,108.167 249.833,111.833 248.5,115.5C 244.034,114.433 239.534,114.433 235,115.5C 234.333,112.167 234.333,108.833 235,105.5C 235.698,104.309 236.531,103.309 237.5,102.5 Z"/></g>
<g><path style="opacity:0.918" fill="#bb845f" d="M 268.5,102.5 C 270.857,102.337 273.19,102.503 275.5,103C 277.054,105.686 278.388,108.519 279.5,111.5C 281.046,107.955 283.213,104.955 286,102.5C 289.462,105.398 291.962,109.064 293.5,113.5C 293.038,115.291 291.871,116.291 290,116.5C 287.521,115.313 285.021,115.313 282.5,116.5C 280.137,114.103 278.137,114.27 276.5,117C 266.611,119.111 262.778,115.278 265,105.5C 266.145,104.364 267.312,103.364 268.5,102.5 Z"/></g>
<g><path style="opacity:0.49" fill="#c49276" d="M 334.5,101.5 C 336.936,101.317 339.103,101.984 341,103.5C 340.569,108.062 340.403,112.562 340.5,117C 337.007,118.004 333.841,117.504 331,115.5C 330.333,111.5 330.333,107.5 331,103.5C 332.302,102.915 333.469,102.249 334.5,101.5 Z"/></g>
<g><path style="opacity:0.905" fill="#c38864" d="M 309.5,102.5 C 310.822,102.33 311.989,102.663 313,103.5C 313.333,106.167 313.667,108.833 314,111.5C 314.059,108.178 315.226,105.344 317.5,103C 319.464,102.376 321.131,102.876 322.5,104.5C 324.392,101.956 326.225,101.956 328,104.5C 328.667,108.167 328.667,111.833 328,115.5C 325.724,118.064 323.724,117.73 322,114.5C 319.165,117.236 316.665,116.903 314.5,113.5C 310.033,119.111 307.7,118.111 307.5,110.5C 307.564,107.65 308.23,104.983 309.5,102.5 Z"/></g>
<g><path style="opacity:0.518" fill="#c18765" d="M 255.5,102.5 C 257.39,102.297 258.89,102.963 260,104.5C 262.17,107.942 263.17,111.609 263,115.5C 258.907,115.222 254.741,115.556 250.5,116.5C 250.476,111.217 252.143,106.55 255.5,102.5 Z"/></g>
<g><path style="opacity:0.58" fill="#103253" d="M 81.5,119.5 C 86.8899,107.036 92.0566,94.3692 97,81.5C 97.8834,78.8976 99.3834,76.7309 101.5,75C 110.16,74.5002 118.827,74.3336 127.5,74.5C 130.435,102.136 118.435,119.303 91.5,126C 87.8484,126.499 84.1817,126.665 80.5,126.5C 80.448,124.097 80.7814,121.764 81.5,119.5 Z"/></g>
<g><path style="opacity:1" fill="#093e71" d="M 99.5,84.5 C 99.4046,87.3576 98.2379,89.6909 96,91.5C 95.5845,95.848 95.7512,100.181 96.5,104.5C 97.5,104.5 98.5,104.5 99.5,104.5C 99.2865,106.144 99.6198,107.644 100.5,109C 99.552,109.483 98.552,109.649 97.5,109.5C 97.5,110.5 97.5,111.5 97.5,112.5C 99.8194,113.167 102.153,113.334 104.5,113C 102.963,111.89 102.297,110.39 102.5,108.5C 103.822,108.67 104.989,108.337 106,107.5C 106.577,112.126 108.577,113.126 112,110.5C 112.684,109.216 112.517,108.049 111.5,107C 112.047,106.075 112.713,105.242 113.5,104.5C 115.071,105.309 116.738,105.643 118.5,105.5C 117.052,107.555 115.719,109.722 114.5,112C 110.27,115.271 105.936,118.271 101.5,121C 95.796,121.677 90.1293,122.511 84.5,123.5C 84.3398,121.801 84.5065,120.134 85,118.5C 88.3297,109.191 91.663,99.8577 95,90.5C 96.7641,88.6107 98.2641,86.6107 99.5,84.5 Z"/></g>
<g><path style="opacity:1" fill="#083e74" d="M 118.5,105.5 C 116.738,105.643 115.071,105.309 113.5,104.5C 112.713,105.242 112.047,106.075 111.5,107C 112.517,108.049 112.684,109.216 112,110.5C 108.577,113.126 106.577,112.126 106,107.5C 104.989,108.337 103.822,108.67 102.5,108.5C 102.297,110.39 102.963,111.89 104.5,113C 102.153,113.334 99.8194,113.167 97.5,112.5C 97.5,111.5 97.5,110.5 97.5,109.5C 98.552,109.649 99.552,109.483 100.5,109C 99.6198,107.644 99.2865,106.144 99.5,104.5C 98.5,104.5 97.5,104.5 96.5,104.5C 95.7512,100.181 95.5845,95.848 96,91.5C 98.2379,89.6909 99.4046,87.3576 99.5,84.5C 100.103,82.3206 100.77,80.154 101.5,78C 109.493,77.5003 117.493,77.3336 125.5,77.5C 126.255,87.8145 123.922,97.1479 118.5,105.5 Z"/></g>
</svg>
